<?xml version="1.0" standalone="no"?>
<!DOCTYPE svg PUBLIC "-//W3C//DTD SVG 20010904//EN"
 "http://www.w3.org/TR/2001/REC-SVG-20010904/DTD/svg10.dtd">
<svg version="1.0" xmlns="http://www.w3.org/2000/svg"
 width="580.000000pt" height="580.000000pt" viewBox="0 0 580.000000 580.000000"
 preserveAspectRatio="xMidYMid meet">
<metadata>
Created by potrace 1.14, written by Peter Selinger 2001-2017
</metadata>
<g transform="translate(0.000000,580.000000) scale(0.100000,-0.100000)"
fill="#000000" stroke="none">
<path d="M2035 5735 c-159 -36 -293 -136 -366 -276 -15 -28 -30 -60 -34 -72
-4 -12 -9 -26 -10 -32 -13 -40 -21 -112 -20 -180 3 -138 49 -255 149 -380 106
-133 158 -261 159 -394 2 -135 -24 -226 -93 -328 -111 -167 -274 -250 -479
-245 -126 2 -230 50 -396 179 -139 109 -257 149 -410 139 -138 -8 -233 -45
-338 -131 -113 -92 -187 -240 -193 -385 -7 -175 44 -307 166 -431 112 -114
233 -168 385 -170 146 -2 212 26 418 179 142 104 233 141 368 146 317 14 577
-240 580 -564 1 -149 -37 -240 -180 -430 -152 -201 -182 -363 -107 -564 144
-381 631 -483 922 -192 136 136 190 308 155 491 -22 113 -58 184 -158 310 -70
88 -136 213 -151 289 -15 71 -6 191 18 266 75 226 287 387 520 394 146 5 271
-42 385 -144 39 -34 102 -82 140 -107 82 -52 138 -110 170 -173 69 -137 76
-311 18 -425 -26 -50 -62 -87 -144 -147 -189 -138 -250 -365 -152 -565 19 -39
59 -88 124 -152 151 -151 189 -238 189 -431 0 -227 -42 -373 -149 -525 -19
-27 -47 -68 -62 -90 -73 -108 -76 -281 -7 -383 60 -87 182 -158 287 -166 133
-11 282 79 340 203 21 47 26 70 26 146 0 78 -4 97 -27 145 -15 30 -55 87 -88
125 -75 86 -112 161 -139 285 -37 171 -45 318 -23 427 22 111 64 175 149 230
61 39 110 86 155 151 62 89 159 123 368 128 110 3 149 0 210 -16 119 -31 225
-89 308 -168 119 -114 235 -161 369 -148 156 15 261 81 342 212 80 132 82 328
6 459 -53 90 -171 174 -280 200 -58 14 -163 11 -226 -5 -55 -14 -155 -73 -193
-114 -15 -17 -46 -55 -68 -84 -47 -63 -110 -106 -180 -122 -47 -12 -220 -9
-303 5 -184 31 -283 78 -411 194 -34 31 -92 72 -130 92 -91 49 -109 81 -122
229 -4 41 -4 107 -1 145 18 193 30 212 211 331 113 75 186 155 231 253 136
301 -9 656 -316 769 -152 57 -342 41 -477 -41 -19 -11 -71 -49 -115 -83 -177
-136 -257 -169 -413 -166 -147 2 -271 58 -382 171 -118 120 -178 271 -166 421
10 125 47 205 167 363 155 204 193 365 134 572 -17 59 -76 160 -125 212 -135
144 -347 211 -535 168z"/>
<path d="M3607 5729 c-155 -44 -266 -130 -344 -268 -102 -179 -96 -414 14
-581 166 -252 479 -334 743 -194 270 143 375 475 238 753 -69 140 -226 263
-375 297 -71 15 -209 12 -276 -7z"/>
</g>
</svg>
